<svg width="12" height="12" viewBox="0 0 12 12" fill="none" xmlns="http://www.w3.org/2000/svg">
<path d="M6.0356 8.5542V9.88224" stroke="#168721" stroke-width="1.1" stroke-linecap="round" stroke-linejoin="round"/>
<path d="M6.03596 8.40784C4.98007 7.98594 4.0833 7.24317 3.47217 6.2843" stroke="#168721" stroke-width="1.1" stroke-linecap="round" stroke-linejoin="round"/>
<path d="M6.03564 8.40784C7.09153 7.98594 7.9883 7.24317 8.59943 6.2843" stroke="#168721" stroke-width="1.1" stroke-linecap="round" stroke-linejoin="round"/>
<path d="M6.03581 10.6403H4.70068" stroke="#168721" stroke-width="1.1" stroke-linecap="round" stroke-linejoin="round"/>
<path d="M6.03564 10.6403H7.37077" stroke="#168721" stroke-width="1.1" stroke-linecap="round" stroke-linejoin="round"/>
<path d="M2.64951 3.91403C2.62961 3.64431 2.72744 3.37918 2.91779 3.18705C3.10813 2.99491 3.37233 2.89459 3.64222 2.91197H8.42882C8.69872 2.89459 8.96292 2.99491 9.15326 3.18705C9.3436 3.37918 9.44144 3.64431 9.42154 3.91403" stroke="#168721" stroke-width="1.1" stroke-linecap="round" stroke-linejoin="round"/>
<path d="M2.65029 3.91408H1.50364C1.37178 3.90498 1.24216 3.95168 1.1464 4.04278C1.05064 4.13389 0.997553 4.26103 1.00009 4.39318C0.999921 5.275 1.53455 6.06884 2.35176 6.40018C2.39583 6.41345 2.4417 6.41976 2.48772 6.41888H3.10852C3.24076 6.41914 3.36858 6.37134 3.4682 6.28436" stroke="#168721" stroke-width="1.1" stroke-linecap="round" stroke-linejoin="round"/>
<path d="M2.6499 3.91406C2.76201 4.75136 3.04165 5.55749 3.47213 6.28434" stroke="#168721" stroke-width="1.1" stroke-linecap="round" stroke-linejoin="round"/>
<path d="M9.42101 3.91408H10.572C10.7038 3.90498 10.8335 3.95168 10.9292 4.04278C11.025 4.13389 11.0781 4.26103 11.0755 4.39318C11.0757 5.275 10.5411 6.06884 9.72386 6.40018C9.67979 6.41345 9.63392 6.41976 9.58791 6.41888H8.9671C8.83486 6.41914 8.70704 6.37134 8.60742 6.28436" stroke="#168721" stroke-width="1.1" stroke-linecap="round" stroke-linejoin="round"/>
<path d="M9.42965 3.91406C9.31754 4.75136 9.0379 5.55749 8.60742 6.28434" stroke="#168721" stroke-width="1.1" stroke-linecap="round" stroke-linejoin="round"/>
</svg>
