<svg width="16" height="16" viewBox="0 0 16 16" fill="none" xmlns="http://www.w3.org/2000/svg">
<path d="M10.929 10.0711C10.5878 10.4122 9.98482 11.0152 9.41426 11.5858C8.63321 12.3668 7.36696 12.3669 6.58591 11.5859C6.02667 11.0266 5.43232 10.4323 5.07111 10.0711C3.45351 8.45346 3.45351 5.83081 5.07111 4.2132C6.68872 2.5956 9.31137 2.5956 10.929 4.2132C12.5466 5.83081 12.5466 8.45346 10.929 10.0711Z" stroke="#168721" stroke-width="1.13" stroke-linecap="round" stroke-linejoin="round"/>
<path d="M9.55335 7.14214C9.55335 8 8.85791 8.69544 8.00005 8.69544C7.14218 8.69544 6.44675 8 6.44675 7.14214C6.44675 6.28427 7.14218 5.58884 8.00005 5.58884C8.85791 5.58884 9.55335 6.28427 9.55335 7.14214Z" stroke="#168721" stroke-width="1.13" stroke-linecap="round" stroke-linejoin="round"/>
</svg>
