<svg width="20" height="20" viewBox="0 0 20 20" fill="none" xmlns="http://www.w3.org/2000/svg">
<path fill-rule="evenodd" clip-rule="evenodd" d="M10 1.875C10.641 1.875 11.1607 2.39467 11.1607 3.03571V8.83929H16.9643C17.6053 8.83929 18.125 9.35895 18.125 10C18.125 10.641 17.6053 11.1607 16.9643 11.1607H11.1607V16.9643C11.1607 17.6053 10.641 18.125 10 18.125C9.35895 18.125 8.83929 17.6053 8.83929 16.9643V11.1607H3.03571C2.39467 11.1607 1.875 10.641 1.875 10C1.875 9.35895 2.39467 8.83928 3.03571 8.83928L8.83929 8.83929V3.03571C8.83929 2.39467 9.35895 1.875 10 1.875Z" fill="#F9FAFB"/>
</svg>
