<svg width="32" height="32" viewBox="0 0 32 32" fill="none" xmlns="http://www.w3.org/2000/svg">
<path d="M15.049 5.92664C15.3483 5.00538 16.6517 5.00538 16.951 5.92664L18.6944 11.2915C18.8283 11.7035 19.2122 11.9824 19.6454 11.9824L25.2864 11.9827C26.2551 11.9827 26.6579 13.2222 25.8742 13.7917L21.3107 17.1075C20.9602 17.3622 20.8136 17.8135 20.9474 18.2255L22.6904 23.5905C22.9897 24.5118 21.9353 25.2779 21.1516 24.7085L16.5878 21.393C16.2373 21.1384 15.7627 21.1384 15.4122 21.393L10.8484 24.7085C10.0647 25.2779 9.01031 24.5118 9.30962 23.5905L11.0526 18.2255C11.1864 17.8135 11.0398 17.3622 10.6893 17.1075L6.12578 13.7917C5.34211 13.2222 5.74487 11.9827 6.71355 11.9827L12.3546 11.9824C12.7878 11.9824 13.1717 11.7035 13.3056 11.2915L15.049 5.92664Z" stroke="#333333" stroke-width="2.2"/>
</svg>
