<svg width="24" height="24" viewBox="0 0 24 24" fill="none" xmlns="http://www.w3.org/2000/svg">
<path d="M11.049 2.92664C11.3483 2.00538 12.6517 2.00538 12.951 2.92664L14.6944 8.2915C14.8283 8.70349 15.2122 8.98243 15.6454 8.98245L21.2864 8.98266C22.2551 8.9827 22.6579 10.2222 21.8742 10.7917L17.3107 14.1075C16.9602 14.3622 16.8136 14.8135 16.9474 15.2255L18.6904 20.5905C18.9897 21.5118 17.9353 22.2779 17.1516 21.7085L12.5878 18.393C12.2373 18.1384 11.7627 18.1384 11.4122 18.393L6.84844 21.7085C6.06473 22.2779 5.01031 21.5118 5.30962 20.5905L7.05258 15.2255C7.18643 14.8135 7.03979 14.3622 6.68933 14.1075L2.12578 10.7917C1.34211 10.2222 1.74487 8.9827 2.71355 8.98266L8.35457 8.98245C8.78777 8.98243 9.1717 8.70349 9.30558 8.2915L11.049 2.92664Z" stroke="#333F48" stroke-width="2.67"/>
</svg>
