<svg width="32" height="32" viewBox="0 0 32 32" fill="none" xmlns="http://www.w3.org/2000/svg">
<path d="M12.625 23.2222H19.3748M15.9999 3V4.44444M25.1923 6.80761L24.1709 7.82899M29 15.9999H27.5556M4.44444 15.9999H3M7.82891 7.82899L6.80753 6.80761M10.893 21.1069C8.07259 18.2865 8.07259 13.7136 10.893 10.8932C13.7135 8.0727 18.2864 8.0727 21.1068 10.8932C23.9273 13.7136 23.9273 18.2865 21.1068 21.1069L20.3166 21.8972C19.4024 22.8113 18.8888 24.0512 18.8888 25.344V26.1111C18.8888 27.7066 17.5954 29 15.9999 29C14.4044 29 13.111 27.7066 13.111 26.1111V25.344C13.111 24.0512 12.5975 22.8113 11.6833 21.8972L10.893 21.1069Z" stroke="#333F48" stroke-width="2.67" stroke-linecap="round" stroke-linejoin="round"/>
</svg>
