<svg width="32" height="32" viewBox="0 0 32 32" fill="none" xmlns="http://www.w3.org/2000/svg">
<path d="M10.2222 21.7778L14.3803 17.6197M14.3803 17.6197C15.1645 18.4039 16.2478 18.8889 17.4444 18.8889C19.8377 18.8889 21.7778 16.9488 21.7778 14.5556C21.7778 12.1623 19.8377 10.2222 17.4444 10.2222C15.0512 10.2222 13.1111 12.1623 13.1111 14.5556C13.1111 15.7522 13.5961 16.8355 14.3803 17.6197ZM29 16C29 23.1797 23.1797 29 16 29C8.8203 29 3 23.1797 3 16C3 8.8203 8.8203 3 16 3C23.1797 3 29 8.8203 29 16Z" stroke="#333333" stroke-width="2.67" stroke-linecap="round"/>
</svg>
