<svg width="32" height="32" viewBox="0 0 32 32" fill="none" xmlns="http://www.w3.org/2000/svg">
<path d="M17.4444 21.7778V7.33336C17.4444 6.53562 16.7977 5.88892 16 5.88892H4.44444C3.6467 5.88892 3 6.53562 3 7.33336V21.7778C3 22.5755 3.6467 23.2222 4.44444 23.2222H5.88889M17.4444 21.7778C17.4444 22.5755 16.7977 23.2222 16 23.2222H11.6667M17.4444 21.7778L17.4444 10.2222C17.4444 9.4245 18.0911 8.7778 18.8889 8.7778H22.6239C23.007 8.7778 23.3744 8.92999 23.6453 9.20087L28.5769 14.1325C28.8478 14.4034 29 14.7708 29 15.1539V21.7778C29 22.5755 28.3533 23.2222 27.5556 23.2222H26.1111M17.4444 21.7778C17.4444 22.5755 18.0911 23.2222 18.8889 23.2222H20.3333M5.88889 23.2222C5.88889 24.8177 7.18229 26.1111 8.77778 26.1111C10.3733 26.1111 11.6667 24.8177 11.6667 23.2222M5.88889 23.2222C5.88889 21.6268 7.18229 20.3334 8.77778 20.3334C10.3733 20.3334 11.6667 21.6268 11.6667 23.2222M20.3333 23.2222C20.3333 24.8177 21.6267 26.1111 23.2222 26.1111C24.8177 26.1111 26.1111 24.8177 26.1111 23.2222M20.3333 23.2222C20.3333 21.6268 21.6267 20.3334 23.2222 20.3334C24.8177 20.3334 26.1111 21.6268 26.1111 23.2222" stroke="#333F48" stroke-width="2.67"/>
</svg>
