<svg width="32" height="32" viewBox="0 0 32 32" fill="none" xmlns="http://www.w3.org/2000/svg">
<path d="M13.1109 29H23.222C24.8175 29 26.1109 27.7066 26.1109 26.1111V12.265C26.1109 11.8819 25.9587 11.5145 25.6878 11.2436L17.8673 3.42307C17.5964 3.15218 17.229 3 16.8459 3H8.77756C7.18207 3 5.88867 4.2934 5.88867 5.88889V21.7778M5.88867 29L12.9357 21.953M12.9357 21.953C13.7198 22.7372 14.8032 23.2222 15.9998 23.2222C18.393 23.2222 20.3331 21.2821 20.3331 18.8889C20.3331 16.4957 18.393 14.5556 15.9998 14.5556C13.6065 14.5556 11.6664 16.4957 11.6664 18.8889C11.6664 20.0855 12.1515 21.1688 12.9357 21.953Z" stroke="#333333" stroke-width="2.67" stroke-linecap="round"/>
</svg>
