<svg width="32" height="32" viewBox="0 0 32 32" fill="none" xmlns="http://www.w3.org/2000/svg">
<path d="M22.5 26.4001H29V23.8001C29 21.6462 27.2539 19.9001 25.1 19.9001C23.8577 19.9001 22.7511 20.4809 22.0369 21.3859M22.5 26.4001H9.5M22.5 26.4001V23.8001C22.5 22.947 22.3356 22.1323 22.0369 21.3859M9.5 26.4001H3V23.8001C3 21.6462 4.74609 19.9001 6.9 19.9001C8.14229 19.9001 9.24892 20.4809 9.96312 21.3859M9.5 26.4001V23.8001C9.5 22.947 9.66435 22.1323 9.96312 21.3859M9.96312 21.3859C10.9216 18.9914 13.2633 17.3001 16 17.3001C18.7367 17.3001 21.0784 18.9914 22.0369 21.3859M19.9 9.5001C19.9 11.654 18.1539 13.4001 16 13.4001C13.8461 13.4001 12.1 11.654 12.1 9.5001C12.1 7.34619 13.8461 5.6001 16 5.6001C18.1539 5.6001 19.9 7.34619 19.9 9.5001ZM27.7 13.4001C27.7 14.836 26.5359 16.0001 25.1 16.0001C23.6641 16.0001 22.5 14.836 22.5 13.4001C22.5 11.9642 23.6641 10.8001 25.1 10.8001C26.5359 10.8001 27.7 11.9642 27.7 13.4001ZM9.5 13.4001C9.5 14.836 8.33594 16.0001 6.9 16.0001C5.46406 16.0001 4.3 14.836 4.3 13.4001C4.3 11.9642 5.46406 10.8001 6.9 10.8001C8.33594 10.8001 9.5 11.9642 9.5 13.4001Z" stroke="#333333" stroke-width="2.67" stroke-linecap="round" stroke-linejoin="round"/>
</svg>
