<svg width="32" height="32" viewBox="0 0 32 32" fill="none" xmlns="http://www.w3.org/2000/svg">
<path d="M3.07934 14.5556H5.88889C7.48438 14.5556 8.77778 15.849 8.77778 17.4444V18.8889C8.77778 20.4844 10.0712 21.7778 11.6667 21.7778C13.2622 21.7778 14.5556 23.0712 14.5556 24.6667V28.9207M10.2222 4.35131V6.61111C10.2222 8.60547 11.839 10.2222 13.8333 10.2222H14.5556C16.151 10.2222 17.4444 11.5156 17.4444 13.1111C17.4444 14.7066 18.7378 16 20.3333 16C21.9288 16 23.2222 14.7066 23.2222 13.1111C23.2222 11.5156 24.5156 10.2222 26.1111 10.2222L27.6487 10.2222M20.3333 28.2603V24.6667C20.3333 23.0712 21.6267 21.7778 23.2222 21.7778H27.6487M29 16C29 23.1797 23.1797 29 16 29C8.8203 29 3 23.1797 3 16C3 8.8203 8.8203 3 16 3C23.1797 3 29 8.8203 29 16Z" stroke="#333F48" stroke-width="2.67" stroke-linecap="round" stroke-linejoin="round"/>
</svg>
