<svg width="48" height="48" viewBox="0 0 48 48" fill="none" xmlns="http://www.w3.org/2000/svg">
<rect width="48" height="48" rx="24" fill="#BAEDFF"/>
<path d="M20.625 31.2222H27.3748M23.9999 11V12.4444M33.1923 14.8076L32.1709 15.829M37 23.9999H35.5556M12.4444 23.9999H11M15.8289 15.829L14.8075 14.8076M18.893 29.1069C16.0726 26.2865 16.0726 21.7136 18.893 18.8932C21.7135 16.0727 26.2864 16.0727 29.1068 18.8932C31.9273 21.7136 31.9273 26.2865 29.1068 29.1069L28.3166 29.8972C27.4024 30.8113 26.8888 32.0512 26.8888 33.344V34.1111C26.8888 35.7066 25.5954 37 23.9999 37C22.4044 37 21.111 35.7066 21.111 34.1111V33.344C21.111 32.0512 20.5975 30.8113 19.6833 29.8972L18.893 29.1069Z" stroke="#00BBFD" stroke-width="2.67" stroke-linecap="round" stroke-linejoin="round"/>
</svg>
