<svg width="33" height="33" viewBox="0 0 33 33" fill="none" xmlns="http://www.w3.org/2000/svg">
<path d="M12.3332 26.9959V18.3292C12.3332 16.7337 11.0398 15.4403 9.44428 15.4403H6.55539C4.9599 15.4403 3.6665 16.7337 3.6665 18.3292V26.9959C3.6665 28.5914 4.9599 29.8848 6.55539 29.8848H9.44428C11.0398 29.8848 12.3332 28.5914 12.3332 26.9959ZM12.3332 26.9959V12.5514C12.3332 10.9559 13.6266 9.66254 15.2221 9.66254H18.1109C19.7064 9.66254 20.9998 10.9559 20.9998 12.5514V26.9959M12.3332 26.9959C12.3332 28.5914 13.6266 29.8848 15.2221 29.8848H18.1109C19.7064 29.8848 20.9998 28.5914 20.9998 26.9959M20.9998 26.9959V6.77365C20.9998 5.17817 22.2932 3.88477 23.8887 3.88477H26.7776C28.3731 3.88477 29.6665 5.17817 29.6665 6.77365V26.9959C29.6665 28.5914 28.3731 29.8848 26.7776 29.8848H23.8887C22.2932 29.8848 20.9998 28.5914 20.9998 26.9959Z" stroke="white" stroke-width="2.67" stroke-linecap="round" stroke-linejoin="round"/>
</svg>
