<svg width="32" height="33" viewBox="0 0 32 33" fill="none" xmlns="http://www.w3.org/2000/svg">
<path fill-rule="evenodd" clip-rule="evenodd" d="M16 29.8848C23.1797 29.8848 29 24.0645 29 16.8848C29 9.70506 23.1797 3.88477 16 3.88477C8.8203 3.88477 3 9.70506 3 16.8848C3 24.0645 8.8203 29.8848 16 29.8848ZM17 10.3848C17 9.83248 16.5523 9.38477 16 9.38477C15.4477 9.38477 15 9.83248 15 10.3848V16.8848C15 17.15 15.1054 17.4043 15.2929 17.5919L19.8891 22.1881C20.2796 22.5786 20.9128 22.5786 21.3033 22.1881C21.6938 21.7975 21.6938 21.1644 21.3033 20.7739L17 16.4706V10.3848Z" fill="#333333"/>
</svg>
