<svg width="16" height="17" viewBox="0 0 16 17" fill="none" xmlns="http://www.w3.org/2000/svg">
<path d="M4.66732 15.1667H2.66732C2.3137 15.1667 1.97456 15.0262 1.72451 14.7762C1.47446 14.5261 1.33398 14.187 1.33398 13.8333V9.16668C1.33398 8.81306 1.47446 8.47392 1.72451 8.22387C1.97456 7.97382 2.3137 7.83334 2.66732 7.83334H4.66732M9.33398 6.50001V3.83334C9.33398 3.30291 9.12327 2.7942 8.7482 2.41913C8.37313 2.04406 7.86442 1.83334 7.33398 1.83334L4.66732 7.83334V15.1667H12.1873C12.5089 15.1703 12.8209 15.0576 13.0659 14.8493C13.3109 14.6411 13.4724 14.3513 13.5207 14.0333L14.4407 8.03334C14.4697 7.84225 14.4568 7.64713 14.4029 7.46151C14.349 7.27589 14.2554 7.10421 14.1286 6.95835C14.0017 6.8125 13.8447 6.69596 13.6684 6.61682C13.492 6.53768 13.3006 6.49782 13.1073 6.50001H9.33398Z" stroke="#333333" stroke-width="2" stroke-linecap="round" stroke-linejoin="round"/>
</svg>
