<svg width="27" height="24" viewBox="0 0 27 24" fill="none" xmlns="http://www.w3.org/2000/svg">
<path fill-rule="evenodd" clip-rule="evenodd" d="M10.5117 1.81557C11.8225 -0.514696 15.1775 -0.514697 16.4883 1.81557L26.0547 18.8225C27.3403 21.108 25.6887 23.932 23.0664 23.932H3.93362C1.31131 23.932 -0.340303 21.108 0.945311 18.8225L10.5117 1.81557ZM15.2142 18.7893C15.2142 19.7361 14.4466 20.5036 13.4999 20.5036C12.5531 20.5036 11.7855 19.7361 11.7855 18.7893C11.7855 17.8425 12.5531 17.075 13.4999 17.075C14.4466 17.075 15.2142 17.8425 15.2142 18.7893ZM13.4999 5.07478C12.5531 5.07478 11.7855 5.84231 11.7855 6.7891V11.932C11.7855 12.8788 12.5531 13.6463 13.4999 13.6463C14.4466 13.6463 15.2142 12.8788 15.2142 11.932V6.7891C15.2142 5.84231 14.4466 5.07478 13.4999 5.07478Z" fill="#BC0000"/>
</svg>
