<svg width="32" height="33" viewBox="0 0 32 33" fill="none" xmlns="http://www.w3.org/2000/svg">
<path d="M16.6401 4.01615C16.2314 3.84097 15.7686 3.84097 15.3599 4.01615L3.98488 8.89116C3.38739 9.14722 3 9.73472 3 10.3848C3 11.0348 3.38739 11.6223 3.98488 11.8784L8.28186 13.7199C8.43811 13.5429 8.63398 13.3987 8.85988 13.3019L15.3599 10.5162C16.1848 10.1626 17.1401 10.5448 17.4936 11.3697C17.8471 12.1946 17.465 13.1499 16.6401 13.5034L12.2084 15.4027L15.3599 16.7534C15.7686 16.9286 16.2314 16.9286 16.6401 16.7534L28.0151 11.8784C28.6126 11.6223 29 11.0348 29 10.3848C29 9.73472 28.6126 9.14722 28.0151 8.89116L16.6401 4.01615Z" fill="#333333"/>
<path d="M5.12882 15.9045L7.875 17.0814V23.7466C7.318 23.6202 6.74896 23.5257 6.1699 23.465C5.40652 23.385 4.80326 22.7817 4.72321 22.0183C4.65825 21.3987 4.625 20.7702 4.625 20.1345C4.625 18.6776 4.79954 17.2609 5.12882 15.9045Z" fill="#333333"/>
<path d="M14.8624 27.5651C13.769 26.4932 12.509 25.5922 11.125 24.9043V18.4742L14.0796 19.7405C15.3059 20.2661 16.6941 20.2661 17.9204 19.7405L26.8712 15.9045C27.2005 17.2609 27.375 18.6776 27.375 20.1345C27.375 20.7702 27.3417 21.3987 27.2768 22.0183C27.1967 22.7817 26.5935 23.385 25.8301 23.465C22.4617 23.8182 19.4326 25.3152 17.1376 27.5651C16.5057 28.1845 15.4943 28.1845 14.8624 27.5651Z" fill="#333333"/>
<path d="M9.5 29.8847C10.3975 29.8847 11.125 29.1572 11.125 28.2597V24.9043C10.1035 24.3966 9.0144 24.005 7.875 23.7466V28.2597C7.875 29.1572 8.60254 29.8847 9.5 29.8847Z" fill="#333333"/>
</svg>
