<svg width="16" height="17" viewBox="0 0 16 17" fill="none" xmlns="http://www.w3.org/2000/svg">
<path d="M3 9.50977C3 9.16459 3.27982 8.88477 3.625 8.88477H4.875C5.22018 8.88477 5.5 9.16459 5.5 9.50977V12.6348C5.5 12.9799 5.22018 13.2598 4.875 13.2598H3.625C3.27982 13.2598 3 12.9799 3 12.6348V9.50977Z" fill="#BC0000"/>
<path d="M6.75 7.00977C6.75 6.66459 7.02982 6.38477 7.375 6.38477H8.625C8.97018 6.38477 9.25 6.66459 9.25 7.00977V12.6348C9.25 12.9799 8.97018 13.2598 8.625 13.2598H7.375C7.02982 13.2598 6.75 12.9799 6.75 12.6348V7.00977Z" fill="#BC0000"/>
<path d="M10.5 5.13477C10.5 4.78959 10.7798 4.50977 11.125 4.50977H12.375C12.7202 4.50977 13 4.78959 13 5.13477V12.6348C13 12.9799 12.7202 13.2598 12.375 13.2598H11.125C10.7798 13.2598 10.5 12.9799 10.5 12.6348V5.13477Z" fill="#BC0000"/>
</svg>
