<svg width="10" height="11" viewBox="0 0 10 11" fill="none" xmlns="http://www.w3.org/2000/svg">
<path d="M4.3604 1.06101C4.56172 0.441415 5.43828 0.441415 5.6396 1.06101L6.3589 3.27479C6.44893 3.55188 6.70715 3.73948 6.9985 3.73948H9.3262C9.97768 3.73948 10.2485 4.57314 9.72149 4.95607L7.83834 6.32426C7.60263 6.49551 7.504 6.79906 7.59404 7.07615L8.31334 9.28993C8.51465 9.90952 7.8055 10.4247 7.27844 10.0418L5.39529 8.67363C5.15959 8.50238 4.84041 8.50238 4.60471 8.67363L2.72156 10.0418C2.1945 10.4247 1.48535 9.90952 1.68666 9.28993L2.40596 7.07615C2.496 6.79906 2.39737 6.49551 2.16166 6.32426L0.278509 4.95607C-0.248549 4.57314 0.0223231 3.73948 0.673802 3.73948H3.0015C3.29286 3.73948 3.55107 3.55188 3.6411 3.27479L4.3604 1.06101Z" fill="#BC0000"/>
</svg>
