<svg width="32" height="33" viewBox="0 0 32 33" fill="none" xmlns="http://www.w3.org/2000/svg">
<path fill-rule="evenodd" clip-rule="evenodd" d="M9.5 3.88477C8.60254 3.88477 7.875 4.6123 7.875 5.50977V7.13477H6.25C4.45507 7.13477 3 8.58984 3 10.3848V26.6348C3 28.4297 4.45507 29.8848 6.25 29.8848H25.75C27.5449 29.8848 29 28.4297 29 26.6348V10.3848C29 8.58984 27.5449 7.13477 25.75 7.13477H24.125V5.50977C24.125 4.6123 23.3975 3.88477 22.5 3.88477C21.6025 3.88477 20.875 4.6123 20.875 5.50977V7.13477H11.125V5.50977C11.125 4.6123 10.3975 3.88477 9.5 3.88477ZM9.5 12.0098C8.60254 12.0098 7.875 12.7373 7.875 13.6348C7.875 14.5322 8.60254 15.2598 9.5 15.2598H22.5C23.3975 15.2598 24.125 14.5322 24.125 13.6348C24.125 12.7373 23.3975 12.0098 22.5 12.0098H9.5Z" fill="#333333"/>
</svg>
