<svg width="32" height="33" viewBox="0 0 32 33" fill="none" xmlns="http://www.w3.org/2000/svg">
<path fill-rule="evenodd" clip-rule="evenodd" d="M11.2309 4.16699C10.5879 4.16699 10.0082 4.55431 9.76216 5.14835C9.51611 5.74238 9.65212 6.42614 10.1068 6.8808L11.2309 8.00489V13.978C11.2309 14.3996 11.0634 14.804 10.7653 15.1021L4.40641 21.4609C1.40202 24.4653 3.52985 29.6024 7.77869 29.6024H24.2213C28.4701 29.6024 30.598 24.4653 27.5936 21.4609L21.2347 15.1021C20.9366 14.804 20.7691 14.3996 20.7691 13.978V8.00489L21.8932 6.8808C22.3479 6.42614 22.4839 5.74238 22.2378 5.14835C21.9918 4.55431 21.4121 4.16699 20.7691 4.16699H11.2309ZM14.4103 13.978V7.34641H17.5897V13.978C17.5897 15.2429 18.0922 16.4559 18.9866 17.3503L20.6201 18.9838C19.4805 18.7187 18.2857 18.7724 17.1685 19.1448L16.4211 19.3939C15.1158 19.829 13.7046 19.829 12.3994 19.3939L11.5052 19.0959C11.4447 19.0757 11.3838 19.0574 11.3227 19.041L13.0134 17.3503C13.9078 16.4559 14.4103 15.2429 14.4103 13.978Z" fill="#333333"/>
</svg>
