<svg width="14" height="15" viewBox="0 0 14 15" fill="none" xmlns="http://www.w3.org/2000/svg">
<path fill-rule="evenodd" clip-rule="evenodd" d="M14 7.5C14 11.366 10.866 14.5 7 14.5C3.13401 14.5 0 11.366 0 7.5C0 3.63401 3.13401 0.5 7 0.5C10.866 0.5 14 3.63401 14 7.5ZM7.00001 4.875C6.67724 4.875 6.39415 5.04931 6.24154 5.31314C5.99956 5.73144 5.4643 5.87438 5.046 5.63241C4.62769 5.39043 4.48475 4.85517 4.72673 4.43686C5.17928 3.65453 6.02729 3.125 7.00001 3.125C8.44976 3.125 9.62501 4.30025 9.62501 5.75C9.62501 6.89294 8.89456 7.86528 7.87501 8.22563V8.375C7.87501 8.85825 7.48326 9.25 7.00001 9.25C6.51676 9.25 6.12501 8.85825 6.12501 8.375V7.5C6.12501 7.01675 6.51676 6.625 7.00001 6.625C7.48326 6.625 7.87501 6.23325 7.87501 5.75C7.87501 5.26675 7.48326 4.875 7.00001 4.875ZM7 11.875C7.48325 11.875 7.875 11.4832 7.875 11C7.875 10.5168 7.48325 10.125 7 10.125C6.51675 10.125 6.125 10.5168 6.125 11C6.125 11.4832 6.51675 11.875 7 11.875Z" fill="#64748B"/>
</svg>
