<svg width="24" height="24" viewBox="0 0 24 24" fill="none" xmlns="http://www.w3.org/2000/svg">
<g clip-path="url(#clip0_6318_35395)">
<path d="M12.0001 10.8522V9.15371C13.2744 9.15371 14.3078 8.12079 14.3078 6.84602C14.3078 5.57171 13.2744 4.53833 12.0001 4.53833C10.7258 4.53833 9.69238 5.57171 9.69238 6.84602" stroke="#0657AD" stroke-width="2" stroke-linecap="round" stroke-linejoin="round"/>
<path fill-rule="evenodd" clip-rule="evenodd" d="M1.31377 17.5275C1.31377 17.5275 0.922852 17.7725 0.922852 18.2341V20.083C0.922852 20.083 0.922852 20.5445 1.38439 20.5445H22.6152C22.6152 20.5445 23.0767 20.5445 23.0767 20.083V18.2341C23.0767 18.2341 23.0767 17.7725 22.6858 17.5275L12.3912 11.0696C12.3912 11.0696 12.0002 10.8245 11.6089 11.0696L1.31377 17.5275Z" stroke="#0657AD" stroke-width="2" stroke-linecap="round" stroke-linejoin="round"/>
<path d="M1.09082 17.2468H23.1187" stroke="#0657AD" stroke-width="2"/>
</g>
<defs>
<clipPath id="clip0_6318_35395">
<rect width="24" height="23.0769" fill="white" transform="translate(0 0.846191)"/>
</clipPath>
</defs>
</svg>
