<svg width="22" height="24" viewBox="0 0 22 24" fill="none" xmlns="http://www.w3.org/2000/svg">
<g clip-path="url(#clip0_6318_14207)">
<mask id="mask0_6318_14207" style="mask-type:luminance" maskUnits="userSpaceOnUse" x="0" y="0" width="22" height="24">
<path d="M21.75 0H0V24H21.75V0Z" fill="white"/>
</mask>
<g mask="url(#mask0_6318_14207)">
<path d="M21 0.75H2.25V23.25H21V0.75Z" stroke="#1E8782" stroke-width="2" stroke-linecap="round" stroke-linejoin="round"/>
<path d="M0.75 3H3.75" stroke="#1E8782" stroke-width="2" stroke-linecap="round"/>
<path d="M0.75 6H3.75" stroke="#1E8782" stroke-width="2" stroke-linecap="round"/>
<path d="M0.75 9H3.75" stroke="#1E8782" stroke-width="2" stroke-linecap="round"/>
<path d="M0.75 12H3.75" stroke="#1E8782" stroke-width="2" stroke-linecap="round"/>
<path d="M0.75 15H3.75" stroke="#1E8782" stroke-width="2" stroke-linecap="round"/>
<path d="M0.75 18H3.75" stroke="#1E8782" stroke-width="2" stroke-linecap="round"/>
<path d="M0.75 21H3.75" stroke="#1E8782" stroke-width="2" stroke-linecap="round"/>
<path d="M18 0.75V23.25" stroke="#1E8782" stroke-width="2"/>
<path d="M10.957 12C12.0961 12 13.0195 11.0766 13.0195 9.9375C13.0195 8.79841 12.0961 7.875 10.957 7.875C9.81794 7.875 8.89453 8.79841 8.89453 9.9375C8.89453 11.0766 9.81794 12 10.957 12Z" stroke="#1E8782" stroke-width="2"/>
<path d="M9.80273 11.9925C8.55773 11.9925 7.55273 12.9975 7.55273 14.2425V16.4925H14.3027V14.2425C14.3027 12.9975 13.2977 11.9925 12.0527 11.9925H9.80273Z" stroke="#1E8782" stroke-width="2" stroke-linecap="round" stroke-linejoin="round"/>
</g>
</g>
<defs>
<clipPath id="clip0_6318_14207">
<rect width="21.75" height="24" fill="white"/>
</clipPath>
</defs>
</svg>
