<svg width="24" height="24" viewBox="0 0 24 24" fill="none" xmlns="http://www.w3.org/2000/svg">
<g clip-path="url(#clip0_5901_91924)">
<mask id="mask0_5901_91924" style="mask-type:luminance" maskUnits="userSpaceOnUse" x="0" y="0" width="24" height="24">
<path d="M24 0H0V24H24V0Z" fill="white"/>
</mask>
<g mask="url(#mask0_5901_91924)">
<path d="M0.75 14.7376V23.2501H11.25V14.7376L6 10.1851L0.75 14.7376Z" stroke="#0657AD" stroke-width="2" stroke-linecap="round" stroke-linejoin="round"/>
<path d="M11.2875 23.25H23.25V0.75H6V9.78" stroke="#0657AD" stroke-width="2" stroke-linecap="round" stroke-linejoin="round"/>
<path d="M6 19.125V22.875" stroke="#0657AD" stroke-width="3" stroke-linecap="round"/>
</g>
<path d="M12.75 4.43994H9.75V6.68994H12.75V4.43994Z" fill="#0657AD"/>
<path d="M12.75 4.43994H9.75V6.68994H12.75V4.43994Z" stroke="#0657AD" stroke-width="2" stroke-linecap="round" stroke-linejoin="round"/>
<path d="M12.75 9.75H9.75V12H12.75V9.75Z" fill="#0657AD"/>
<path d="M12.75 9.75H9.75V12H12.75V9.75Z" stroke="#0657AD" stroke-width="2" stroke-linecap="round" stroke-linejoin="round"/>
<path d="M19.5 4.43994H16.5V6.68994H19.5V4.43994Z" fill="#0657AD"/>
<path d="M19.5 4.43994H16.5V6.68994H19.5V4.43994Z" stroke="#0657AD" stroke-width="2" stroke-linecap="round" stroke-linejoin="round"/>
<path d="M19.5 9.75H16.5V12H19.5V9.75Z" fill="#0657AD"/>
<path d="M19.5 9.75H16.5V12H19.5V9.75Z" stroke="#0657AD" stroke-width="2" stroke-linecap="round" stroke-linejoin="round"/>
<path d="M19.5078 15H16.5078V17.25H19.5078V15Z" fill="#0657AD"/>
<path d="M19.5078 15H16.5078V17.25H19.5078V15Z" stroke="#0657AD" stroke-width="2" stroke-linecap="round" stroke-linejoin="round"/>
</g>
<defs>
<clipPath id="clip0_5901_91924">
<rect width="24" height="24" fill="white"/>
</clipPath>
</defs>
</svg>
