<svg width="18" height="24" viewBox="0 0 18 24" fill="none" xmlns="http://www.w3.org/2000/svg">
<g clip-path="url(#clip0_5941_63132)">
<mask id="mask0_5941_63132" style="mask-type:luminance" maskUnits="userSpaceOnUse" x="0" y="0" width="18" height="24">
<path d="M17.9607 0H0V24H17.9607V0Z" fill="white"/>
</mask>
<g mask="url(#mask0_5941_63132)">
<path d="M14.2186 0.748291H3.7415C2.08826 0.748291 0.748047 2.08851 0.748047 3.74174V15.7156C0.748047 17.3688 2.08826 18.709 3.7415 18.709H14.2186C15.8718 18.709 17.212 17.3688 17.212 15.7156V3.74174C17.212 2.08851 15.8718 0.748291 14.2186 0.748291Z" stroke="#F05F46" stroke-width="2"/>
</g>
<path d="M3.74219 3.7417V10.477H14.2193V3.7417H3.74219Z" stroke="#F05F46" stroke-width="2" stroke-linecap="round" stroke-linejoin="round"/>
<mask id="mask1_5941_63132" style="mask-type:luminance" maskUnits="userSpaceOnUse" x="0" y="0" width="18" height="24">
<path d="M17.9607 0H0V24H17.9607V0Z" fill="white"/>
</mask>
<g mask="url(#mask1_5941_63132)">
<path d="M5.23891 15.7156C6.06211 15.7156 6.73564 15.0496 6.73564 14.2189C6.73564 13.3882 6.06211 12.7222 5.23891 12.7222C4.41571 12.7222 3.74219 13.3957 3.74219 14.2189C3.74219 15.0421 4.40823 15.7156 5.23891 15.7156Z" fill="#F05F46"/>
<path d="M5.23891 15.7156C6.06553 15.7156 6.73564 15.0455 6.73564 14.2189C6.73564 13.3923 6.06553 12.7222 5.23891 12.7222C4.41229 12.7222 3.74219 13.3923 3.74219 14.2189C3.74219 15.0455 4.41229 15.7156 5.23891 15.7156Z" stroke="#F05F46"/>
<path d="M12.7223 15.7156C13.5455 15.7156 14.219 15.0496 14.219 14.2189C14.219 13.3882 13.5455 12.7222 12.7223 12.7222C11.8991 12.7222 11.2256 13.3957 11.2256 14.2189C11.2256 15.0421 11.8916 15.7156 12.7223 15.7156Z" fill="#F05F46"/>
<path d="M12.7223 15.7156C13.5489 15.7156 14.219 15.0455 14.219 14.2189C14.219 13.3923 13.5489 12.7222 12.7223 12.7222C11.8957 12.7222 11.2256 13.3923 11.2256 14.2189C11.2256 15.0455 11.8957 15.7156 12.7223 15.7156Z" stroke="#F05F46"/>
<path d="M2.24512 21.7026H15.7157" stroke="#F05F46" stroke-width="2"/>
<path d="M1.49707 23.2517L4.13879 18.6792" stroke="#F05F46" stroke-width="2" stroke-linecap="round"/>
<path d="M16.464 23.2517L13.8223 18.6792" stroke="#F05F46" stroke-width="2" stroke-linecap="round"/>
</g>
</g>
<defs>
<clipPath id="clip0_5941_63132">
<rect width="17.9607" height="24" fill="white"/>
</clipPath>
</defs>
</svg>
