<svg width="20" height="20" viewBox="0 0 20 20" fill="none" xmlns="http://www.w3.org/2000/svg">
<path d="M10 3.90625V1.875M10 3.90625C8.87817 3.90625 7.96875 4.81567 7.96875 5.9375C7.96875 7.05933 8.87817 7.96875 10 7.96875M10 3.90625C11.1218 3.90625 12.0312 4.81567 12.0312 5.9375C12.0312 7.05933 11.1218 7.96875 10 7.96875M3.90625 16.0938C5.02808 16.0938 5.9375 15.1843 5.9375 14.0625C5.9375 12.9407 5.02808 12.0312 3.90625 12.0312M3.90625 16.0938C2.78442 16.0938 1.875 15.1843 1.875 14.0625C1.875 12.9407 2.78442 12.0312 3.90625 12.0312M3.90625 16.0938V18.125M3.90625 12.0312V1.875M10 7.96875V18.125M16.0938 16.0938C17.2156 16.0938 18.125 15.1843 18.125 14.0625C18.125 12.9407 17.2156 12.0312 16.0938 12.0312M16.0938 16.0938C14.9719 16.0938 14.0625 15.1843 14.0625 14.0625C14.0625 12.9407 14.9719 12.0312 16.0938 12.0312M16.0938 16.0938V18.125M16.0938 12.0312V1.875" stroke="#333333" stroke-width="1.5" stroke-linecap="round" stroke-linejoin="round"/>
</svg>
