<svg width="16" height="18" viewBox="0 0 16 18" fill="none" xmlns="http://www.w3.org/2000/svg">
<path d="M12.3137 12.8137C11.5923 13.5351 10.1389 14.9886 9.04085 16.0866C8.2598 16.8676 6.99496 16.8675 6.21391 16.0865C5.13566 15.0082 3.70908 13.5817 2.94113 12.8137C0.352958 10.2255 0.352958 6.02929 2.94113 3.44113C5.52929 0.852958 9.72554 0.852958 12.3137 3.44113C14.9019 6.02929 14.9019 10.2255 12.3137 12.8137Z" stroke="#4664DC" stroke-width="2" stroke-linecap="round" stroke-linejoin="round"/>
<path d="M10.1127 8.12742C10.1127 9.5 9 10.6127 7.62742 10.6127C6.25484 10.6127 5.14214 9.5 5.14214 8.12742C5.14214 6.75483 6.25484 5.64214 7.62742 5.64214C9 5.64214 10.1127 6.75483 10.1127 8.12742Z" stroke="#4664DC" stroke-width="2" stroke-linecap="round" stroke-linejoin="round"/>
</svg>
