<svg width="24" height="25" viewBox="0 0 24 25" fill="none" xmlns="http://www.w3.org/2000/svg">
<path d="M10.8587 5.21248C11.218 4.10691 12.7821 4.10691 13.1413 5.21248L14.4248 9.16264C14.5854 9.65706 15.0462 9.99182 15.566 9.99182H19.7195C20.8819 9.99182 21.3653 11.4794 20.4248 12.1626L17.0646 14.604C16.644 14.9095 16.468 15.4512 16.6287 15.9456L17.9122 19.8958C18.2714 21.0013 17.006 21.9207 16.0656 21.2374L12.7053 18.7961C12.2848 18.4905 11.7152 18.4905 11.2947 18.7961L7.93446 21.2374C6.994 21.9207 5.72863 21.0013 6.08785 19.8958L7.37133 15.9456C7.53198 15.4512 7.35599 14.9095 6.93541 14.604L3.5752 12.1626C2.63475 11.4794 3.11808 9.99182 4.28055 9.99182H8.43399C8.95386 9.99182 9.41461 9.65706 9.57525 9.16264L10.8587 5.21248Z" fill="#0FBEFD"/>
</svg>
