<svg width="41" height="40" viewBox="0 0 41 40" fill="none" xmlns="http://www.w3.org/2000/svg">
<path d="M0.75 20C0.75 31.0457 9.70431 40 20.75 40C31.7957 40 40.75 31.0457 40.75 20C40.75 8.95431 31.7957 0 20.75 0C9.70431 0 0.75 8.95431 0.75 20Z" fill="#1877F2"/>
<path d="M30.75 20C30.75 14.5 26.25 10 20.75 10C15.25 10 10.75 14.5 10.75 20C10.75 25 14.375 29.125 19.125 29.875V22.875H16.625V20H19.125V17.75C19.125 15.25 20.625 13.875 22.875 13.875C24 13.875 25.125 14.125 25.125 14.125V16.625H23.875C22.625 16.625 22.25 17.375 22.25 18.125V20H25L24.5 22.875H22.125V30C27.125 29.25 30.75 25 30.75 20Z" fill="white"/>
</svg>
