<svg width="16" height="15" viewBox="0 0 16 15" fill="none" xmlns="http://www.w3.org/2000/svg">
<path d="M1.39742 0.897461L4.03037 3.53041M14.6019 14.102L11.9692 11.4693M9.37504 12.5061C8.92964 12.5906 8.46999 12.6348 8.00001 12.6348C4.71527 12.6348 1.93477 10.4759 1 7.49969C1.25448 6.68947 1.64574 5.93983 2.14672 5.27782M6.4435 5.94355C6.84176 5.54529 7.39195 5.29896 7.99967 5.29896C9.21511 5.29896 10.2004 6.28427 10.2004 7.49971C10.2004 8.10743 9.95409 8.65762 9.55584 9.05588M6.4435 5.94355L9.55584 9.05588M6.4435 5.94355L4.03037 3.53041M9.55584 9.05588L4.03037 3.53041M9.55584 9.05588L11.9692 11.4693M4.03037 3.53041C5.17463 2.79271 6.53732 2.36463 7.99999 2.36463C11.2847 2.36463 14.0652 4.5235 15 7.49974C14.4814 9.15081 13.3948 10.5503 11.9692 11.4693" stroke="#5C656E" stroke-width="1.67" stroke-linecap="round" stroke-linejoin="round"/>
</svg>
