<svg width="41" height="40" viewBox="0 0 41 40" fill="none" xmlns="http://www.w3.org/2000/svg">
<path d="M0.75 20C0.75 31.0457 9.70431 40 20.75 40C31.7957 40 40.75 31.0457 40.75 20C40.75 8.95431 31.7957 0 20.75 0C9.70431 0 0.75 8.95431 0.75 20Z" fill="#E60023"/>
<path d="M20.75 10C15.25 10 10.75 14.5 10.75 20C10.75 24.125 13.25 27.625 16.75 29.125C16.75 28.375 16.75 27.625 16.875 26.875C17.125 26 18.125 21.375 18.125 21.375C18.125 21.375 17.75 20.75 17.75 19.75C17.75 18.25 18.625 17.125 19.625 17.125C20.5 17.125 21 17.75 21 18.625C21 19.5 20.375 20.875 20.125 22.125C19.875 23.125 20.625 24 21.75 24C23.625 24 24.875 21.625 24.875 18.625C24.875 16.375 23.375 14.75 20.75 14.75C17.75 14.75 15.875 17 15.875 19.5C15.875 20.375 16.125 21 16.5 21.5C16.625 21.75 16.75 21.75 16.625 22C16.625 22.125 16.5 22.625 16.375 22.75C16.25 23 16.125 23.125 15.875 23C14.5 22.375 13.875 20.875 13.875 19.125C13.875 16.25 16.25 12.875 21 12.875C24.875 12.875 27.375 15.625 27.375 18.625C27.375 22.5 25.25 25.5 22 25.5C20.875 25.5 19.875 24.875 19.5 24.25C19.5 24.25 18.875 26.5 18.75 27C18.5 27.75 18.125 28.5 17.75 29.125C18.625 29.375 19.625 29.5 20.625 29.5C26.125 29.5 30.625 25 30.625 19.5C30.75 14.5 26.25 10 20.75 10Z" fill="white"/>
</svg>
