<svg width="20" height="21" viewBox="0 0 20 21" fill="none" xmlns="http://www.w3.org/2000/svg">
<path d="M7.42079 11.5437C7.57812 11.2297 7.66667 10.8752 7.66667 10.5C7.66667 10.1248 7.57812 9.77033 7.42079 9.45627M7.42079 11.5437C7.03771 12.3084 6.24682 12.8333 5.33333 12.8333C4.04467 12.8333 3 11.7887 3 10.5C3 9.21134 4.04467 8.16667 5.33333 8.16667C6.24682 8.16667 7.03771 8.6916 7.42079 9.45627M7.42079 11.5437L12.5792 14.1229M7.42079 9.45627L12.5792 6.87706M12.5792 6.87706C12.9623 7.64173 13.7532 8.16667 14.6667 8.16667C15.9553 8.16667 17 7.122 17 5.83333C17 4.54467 15.9553 3.5 14.6667 3.5C13.378 3.5 12.3333 4.54467 12.3333 5.83333C12.3333 6.20851 12.4219 6.563 12.5792 6.87706ZM12.5792 14.1229C12.4219 14.437 12.3333 14.7915 12.3333 15.1667C12.3333 16.4553 13.378 17.5 14.6667 17.5C15.9553 17.5 17 16.4553 17 15.1667C17 13.878 15.9553 12.8333 14.6667 12.8333C13.7532 12.8333 12.9623 13.3583 12.5792 14.1229Z" stroke="#4664DC" stroke-width="1.67" stroke-linecap="round" stroke-linejoin="round"/>
</svg>
