<svg width="41" height="40" viewBox="0 0 41 40" fill="none" xmlns="http://www.w3.org/2000/svg">
<path d="M0.25 20C0.25 31.0457 9.20431 40 20.25 40C31.2957 40 40.25 31.0457 40.25 20C40.25 8.95431 31.2957 0 20.25 0C9.20431 0 0.25 8.95431 0.25 20Z" fill="#1DA1F2"/>
<path d="M30.25 13.75C29.5 14.125 28.75 14.25 27.875 14.375C28.75 13.875 29.375 13.125 29.625 12.125C28.875 12.625 28 12.875 27 13.125C26.25 12.375 25.125 11.875 24 11.875C21.375 11.875 19.375 14.375 20 16.875C16.625 16.75 13.625 15.125 11.5 12.625C10.375 14.5 11 16.875 12.75 18.125C12.125 18.125 11.5 17.875 10.875 17.625C10.875 19.5 12.25 21.25 14.125 21.75C13.5 21.875 12.875 22 12.25 21.875C12.75 23.5 14.25 24.75 16.125 24.75C14.625 25.875 12.375 26.5 10.25 26.25C12.125 27.375 14.25 28.125 16.5 28.125C24.125 28.125 28.375 21.75 28.125 15.875C29 15.375 29.75 14.625 30.25 13.75Z" fill="white"/>
</svg>
