<svg width="64" height="64" viewBox="0 0 64 64" fill="none" xmlns="http://www.w3.org/2000/svg">
<path fill-rule="evenodd" clip-rule="evenodd" d="M58 32C58 46.3594 46.3594 58 32 58C17.6406 58 6 46.3594 6 32C6 17.6406 17.6406 6 32 6C46.3594 6 58 17.6406 58 32ZM22.25 25.5C22.25 23.7051 23.7051 22.25 25.5 22.25C27.2949 22.25 28.75 23.7051 28.75 25.5V38.5C28.75 40.2949 27.2949 41.75 25.5 41.75C23.7051 41.75 22.25 40.2949 22.25 38.5V25.5ZM38.5 22.25C36.7051 22.25 35.25 23.7051 35.25 25.5V38.5C35.25 40.2949 36.7051 41.75 38.5 41.75C40.2949 41.75 41.75 40.2949 41.75 38.5V25.5C41.75 23.7051 40.2949 22.25 38.5 22.25Z" fill="white"/>
</svg>
