<svg width="48" height="48" viewBox="0 0 48 48" fill="none" xmlns="http://www.w3.org/2000/svg">
<path d="M0 24C0 10.7452 10.7452 0 24 0H48V24C48 37.2548 37.2548 48 24 48H0V24Z" fill="#0FBEFD"/>
<path d="M28.0855 28.0855C25.8291 30.3419 22.1709 30.3419 19.9145 28.0855M19.6667 21.1111H19.6811M28.3333 21.1111H28.3478M37 24C37 31.1797 31.1797 37 24 37C16.8203 37 11 31.1797 11 24C11 16.8203 16.8203 11 24 11C31.1797 11 37 16.8203 37 24Z" stroke="#0657AD" stroke-width="2.67" stroke-linecap="round" stroke-linejoin="round"/>
</svg>
